<svg xmlns="http://www.w3.org/2000/svg" xmlns:xlink="http://www.w3.org/1999/xlink" width="0" height="0" style="display:none;"><symbol viewBox="0 0 24 24" id="sfi-fi-rr-a"><path d="m23.931 22.634-7.787-19.82c-1.288-3.718-7-3.717-8.288 0L.069 22.634a1 1 0 1 0 1.861.731l2.501-6.366h15.137l2.501 6.366a1 1 0 0 0 1.861-.731ZM5.217 15l4.5-11.455c.924-2.104 3.641-2.104 4.565 0L18.782 15H5.217Z"></path></symbol><symbol viewBox="0 0 24 24" id="sfi-fi-rr-ad"><path d="M19 2H5C2.243 2 0 4.243 0 7v10c0 2.757 2.243 5 5 5h14c2.757 0 5-2.243 5-5V7c0-2.757-2.243-5-5-5Zm3 15c0 1.654-1.346 3-3 3H5c-1.654 0-3-1.346-3-3V7c0-1.654 1.346-3 3-3h14c1.654 0 3 1.346 3 3v10ZM19 6a1 1 0 0 0-1 1v4.338a3.504 3.504 0 0 0-5 3.162c0 1.93 1.57 3.5 3.5 3.5.608 0 1.18-.156 1.679-.43A.998.998 0 0 0 20 17V7a1 1 0 0 0-1-1Zm-2.5 10c-.827 0-1.5-.673-1.5-1.5s.673-1.5 1.5-1.5 1.5.673 1.5 1.5-.673 1.5-1.5 1.5ZM8.958 6.713a1.001 1.001 0 0 0-1.916 0l-3 10a1 1 0 1 0 1.916.574L6.344 16h3.312l.386 1.287a1 1 0 1 0 1.917-.574l-3-10ZM6.944 14 8 10.48 9.056 14H6.944Z"></path></symbol><symbol viewBox="0 0 24 24" id="sfi-fi-rr-add-document"><path d="M16 16a1 1 0 0 1-1 1h-2v2a1 1 0 0 1-2 0v-2H9a1 1 0 0 1 0-2h2v-2a1 1 0 0 1 2 0v2h2a1 1 0 0 1 1 1zm6-5.515V19a5.006 5.006 0 0 1-5 5H7a5.006 5.006 0 0 1-5-5V5a5.006 5.006 0 0 1 5-5h4.515a6.958 6.958 0 0 1 4.95 2.05l3.484 3.486A6.951 6.951 0 0 1 22 10.485zm-6.949-7.021A5.01 5.01 0 0 0 14 2.684V7a1 1 0 0 0 1 1h4.316a4.983 4.983 0 0 0-.781-1.05zM20 10.485c0-.165-.032-.323-.047-.485H15a3 3 0 0 1-3-3V2.047c-.162-.015-.321-.047-.485-.047H7a3 3 0 0 0-3 3v14a3 3 0 0 0 3 3h10a3 3 0 0 0 3-3z"></path></symbol><symbol viewBox="0 0 24 24" id="sfi-fi-rr-add-folder"><path d="M16 15a1 1 0 0 1-1 1h-2v2a1 1 0 0 1-2 0v-2H9a1 1 0 0 1 0-2h2v-2a1 1 0 0 1 2 0v2h2a1 1 0 0 1 1 1zm8-7v10a5.006 5.006 0 0 1-5 5H5a5.006 5.006 0 0 1-5-5V6a5.006 5.006 0 0 1 5-5h2.528a3.014 3.014 0 0 1 1.341.316L12.025 2.9a1.016 1.016 0 0 0 .447.1H19a5.006 5.006 0 0 1 5 5zM2 6v1h19.816A3 3 0 0 0 19 5h-6.528a3.014 3.014 0 0 1-1.341-.316L7.975 3.105A1.016 1.016 0 0 0 7.528 3H5a3 3 0 0 0-3 3zm20 12V9H2v9a3 3 0 0 0 3 3h14a3 3 0 0 0 3-3z"></path></symbol><symbol viewBox="0 0 24 24" id="sfi-fi-rr-add"><path d="M12 0a12 12 0 1 0 12 12A12.013 12.013 0 0 0 12 0zm0 22a10 10 0 1 1 10-10 10.011 10.011 0 0 1-10 10zm5-10a1 1 0 0 1-1 1h-3v3a1 1 0 0 1-2 0v-3H8a1 1 0 0 1 0-2h3V8a1 1 0 0 1 2 0v3h3a1 1 0 0 1 1 1z"></path></symbol><symbol viewBox="0 0 24 24" id="sfi-fi-rr-address-book"><path d="M18 0H8a5 5 0 0 0-4.576 3H2a1 1 0 0 0 0 2h1v2H2a1 1 0 0 0 0 2h1v2H2a1 1 0 0 0 0 2h1v2H2a1 1 0 0 0 0 2h1v2H2a1 1 0 0 0 0 2h1.424A5 5 0 0 0 8 24h10a5.006 5.006 0 0 0 5-5V5a5.006 5.006 0 0 0-5-5Zm3 19a3 3 0 0 1-3 3H8a3 3 0 0 1-3-3V5a3 3 0 0 1 3-3h10a3 3 0 0 1 3 3Zm-8-7a3 3 0 0 0 0-6 3 3 0 0 0 0 6Zm5 6a1 1 0 0 1-2 0 3 3 0 0 0-6 0 1 1 0 0 1-2 0c.211-6.608 9.791-6.606 10 0Z"></path></symbol><symbol viewBox="0 0 24 24" id="sfi-fi-rr-air-conditioner"><path d="M19 0H5C2.243 0 0 2.243 0 5v1c0 2.757 2.243 5 5 5h14c2.757 0 5-2.243 5-5V5c0-2.757-2.243-5-5-5Zm3 6c0 1.654-1.346 3-3 3H5C3.346 9 2 7.654 2 6V5c0-1.654 1.346-3 3-3h14c1.654 0 3 1.346 3 3v1Zm-2 0a1 1 0 0 1-1 1H5a1 1 0 1 1 0-2h14a1 1 0 0 1 1 1Zm-7 8v9a1 1 0 1 1-2 0v-9a1 1 0 1 1 2 0Zm-4 0v6c0 2.206-1.794 4-4 4s-4-1.794-4-4c0-1.739 1.121-3.397 2.667-3.943a1 1 0 0 1 .666 1.886C3.586 18.207 3 19.11 3 20c0 1.103.897 2 2 2s2-.897 2-2v-6a1 1 0 1 1 2 0Zm14 6c0 2.206-1.794 4-4 4s-4-1.794-4-4v-6a1 1 0 1 1 2 0v6c0 1.103.897 2 2 2s2-.897 2-2c0-.89-.586-1.793-1.333-2.057a1 1 0 1 1 .666-1.886C21.879 16.603 23 18.261 23 20Z"></path></symbol><symbol viewBox="0 0 24 24" id="sfi-fi-rr-air-freshener"><path d="M12 7.364V6h1a1 1 0 0 0 0-2h-1c0-2.206-1.794-4-4-4S4 1.794 4 4v3.364C1.615 8.623 0 11.257 0 14v5c0 2.757 2.243 5 5 5h6c2.757 0 5-2.243 5-5v-5c0-2.743-1.615-5.377-4-6.636ZM6 4c0-1.103.897-2 2-2s2 .897 2 2v3H6V4Zm8 15c0 1.654-1.346 3-3 3H5c-1.654 0-3-1.346-3-3v-5c0-2.085 1.337-4.156 3.204-5h5.591c1.867.844 3.204 2.915 3.204 5v5Zm-5-6H7c-1.654 0-3 1.346-3 3s1.346 3 3 3h2c1.654 0 3-1.346 3-3s-1.346-3-3-3Zm0 4H7c-.551 0-1-.449-1-1s.449-1 1-1h2c.551 0 1 .449 1 1s-.449 1-1 1Zm9-12a1 1 0 1 1-2 0 1 1 0 0 1 2 0Zm6 0a1 1 0 1 1-2 0 1 1 0 0 1 2 0Zm-2-4a1 1 0 1 1 2 0 1 1 0 0 1-2 0Zm2 8a1 1 0 1 1-2 0 1 1 0 0 1 2 0Zm-3-6a1 1 0 1 1-2 0 1 1 0 0 1 2 0Zm0 4a1 1 0 1 1-2 0 1 1 0 0 1 2 0Z"></path></symbol><symbol viewBox="0 0 24 24" id="sfi-fi-rr-alarm-clock"><path d="M13 2.051V1a1 1 0 0 0-2 0v1.051a10.98 10.98 0 0 0-7.319 18.125A3.024 3.024 0 0 0 2 23a1 1 0 0 0 2 0 1.2 1.2 0 0 1 1.11-1.229.932.932 0 0 0 .2-.062 10.924 10.924 0 0 0 13.39 0 1.033 1.033 0 0 0 .182.064A1.2 1.2 0 0 1 20 23a1 1 0 0 0 2 0 3.024 3.024 0 0 0-1.681-2.824A10.98 10.98 0 0 0 13 2.051ZM3 13a9 9 0 1 1 9 9 9.011 9.011 0 0 1-9-9ZM19.215 0a1 1 0 0 0 0 2A2.59 2.59 0 0 1 22 4.5a1 1 0 0 0 2 0A4.6 4.6 0 0 0 19.215 0ZM2 4.5A2.59 2.59 0 0 1 4.785 2a1 1 0 0 0 0-2A4.6 4.6 0 0 0 0 4.5a1 1 0 0 0 2 0Z"></path><path d="M13 11.586V7a1 1 0 0 0-2 0v5a1 1 0 0 0 .293.707l3 3a1 1 0 0 0 1.414-1.414Z"></path></symbol></svg>